/* XPM */
static char *result[] = {
/* columns rows colors chars-per-pixel */
"107 68 241 2 ",
"   c #0C1616",
".  c #0C1C1C",
"X  c #141616",
"o  c #1B1514",
"O  c #151917",
"+  c #1D1A16",
"@  c #141618",
"#  c #1C161A",
"$  c #151C1A",
"%  c #1D1D1A",
"&  c #35160F",
"*  c #3D150F",
"=  c #3E1E0F",
"-  c #230D10",
";  c #221713",
":  c #2C1614",
">  c #231A16",
",  c #2B1B16",
"<  c #221E1A",
"1  c #2B1E19",
"2  c #341712",
"3  c #3B1611",
"4  c #331B15",
"5  c #3B1B14",
"6  c #321E19",
"7  c #3B1E19",
"8  c #0F201E",
"9  c #15201D",
"0  c #1D211D",
"q  c #2D2216",
"w  c #25211D",
"e  c #2A231D",
"r  c #342216",
"t  c #3C2216",
"y  c #3D2A16",
"u  c #33231B",
"i  c #3B231B",
"p  c #35291C",
"a  c #3B291C",
"s  c #1B1F21",
"d  c #151C20",
"f  c #062020",
"g  c #1D2220",
"h  c #112322",
"j  c #252521",
"k  c #2B2621",
"l  c #242924",
"z  c #2D2923",
"x  c #2E2D29",
"c  c #242C28",
"v  c #332621",
"b  c #382720",
"n  c #322B25",
"m  c #3B2B23",
"M  c #342E29",
"N  c #3A2F28",
"B  c #35312A",
"V  c #3A332B",
"C  c #373127",
"Z  c #2E3128",
"A  c #440F0D",
"S  c #44160F",
"D  c #4F150E",
"F  c #4A1B0D",
"G  c #55160E",
"H  c #5B160D",
"J  c #541B0E",
"K  c #5C1C0E",
"L  c #431611",
"P  c #431B14",
"I  c #4B1B13",
"U  c #441F18",
"Y  c #4B1A13",
"T  c #531C13",
"R  c #5B1C12",
"E  c #581711",
"W  c #641A0E",
"Q  c #6C1A0E",
"!  c #67160D",
"~  c #741B0E",
"^  c #7B1B0E",
"/  c #77170C",
"(  c #641C12",
")  c #6B1D11",
"_  c #731D11",
"`  c #7A1D11",
"'  c #7C0E09",
"]  c #4B230F",
"[  c #5D220F",
"{  c #5A290E",
"}  c #432215",
"|  c #4B2314",
" . c #442B15",
".. c #4C2B15",
"X. c #43231B",
"o. c #4C231A",
"O. c #432B1B",
"+. c #4A2B1A",
"@. c #552314",
"#. c #5C2214",
"$. c #532B14",
"%. c #5C2B13",
"&. c #51241A",
"*. c #5C2419",
"=. c #5C2C1A",
"-. c #542A1B",
";. c #4C3316",
":. c #4C321B",
">. c #533316",
",. c #5B3414",
"<. c #543A1D",
"1. c #563A17",
"2. c #63230E",
"3. c #6B290E",
"4. c #75240D",
"5. c #7C230C",
"6. c #742C0C",
"7. c #7C2A0D",
"8. c #6E310F",
"9. c #7A370D",
"0. c #632213",
"q. c #6C2214",
"w. c #622B11",
"e. c #6A2B12",
"r. c #692B1A",
"t. c #742213",
"y. c #7B2213",
"u. c #742B14",
"i. c #7A2916",
"p. c #653313",
"a. c #633B14",
"s. c #6B3B12",
"d. c #6A3816",
"f. c #763615",
"g. c #432A21",
"h. c #472922",
"j. c #4D3323",
"k. c #443326",
"l. c #5B3520",
"z. c #5E471B",
"x. c #684518",
"c. c #774712",
"v. c #7B541B",
"b. c #5B4520",
"n. c #841B0D",
"m. c #8B1C0D",
"M. c #86180A",
"N. c #941B0C",
"B. c #9A1C0B",
"V. c #951608",
"C. c #831E11",
"Z. c #8A1E10",
"A. c #A51C0A",
"S. c #AC1D0A",
"D. c #AE1609",
"F. c #B41B09",
"G. c #BA1B09",
"H. c #BA1C07",
"J. c #84210E",
"K. c #8D220E",
"L. c #822D0C",
"P. c #8B2B0D",
"I. c #91250B",
"U. c #9C230C",
"Y. c #992C0A",
"T. c #83340D",
"R. c #8A350C",
"E. c #953C0A",
"W. c #91330E",
"Q. c #842112",
"!. c #8B2212",
"~. c #832719",
"^. c #932311",
"/. c #9C2615",
"(. c #9B2A15",
"). c #952A15",
"_. c #823F11",
"`. c #973110",
"'. c #A2230D",
"]. c #AE220C",
"[. c #A32B0A",
"{. c #B4240C",
"}. c #B52B09",
"|. c #BB2909",
" X c #A13B0A",
".X c #A7360A",
"XX c #BA340A",
"oX c #B83708",
"OX c #A42411",
"+X c #AD2612",
"@X c #A82A13",
"#X c #BB2510",
"$X c #B62812",
"%X c #A53319",
"&X c #C71D08",
"*X c #D51D05",
"=X c #D31D08",
"-X c #F21E07",
";X c #C2240B",
":X c #CB220B",
">X c #C72807",
",X c #D52509",
"<X c #C73608",
"1X c #D63C07",
"2X c #D12911",
"3X c #EB2B05",
"4X c #E52609",
"5X c #F72806",
"6X c #F43605",
"7X c #9A470C",
"8X c #9C570D",
"9X c #824B14",
"0X c #885311",
"qX c #995D12",
"wX c #8E430C",
"eX c #BA4709",
"rX c #A8590C",
"tX c #BB560C",
"yX c #B05310",
"uX c #AE480F",
"iX c #BC6B0D",
"pX c #B76C0E",
"aX c #BD700D",
"sX c #A66412",
"dX c #876423",
"fX c #C74209",
"gX c #CB4807",
"hX c #D74805",
"jX c #DC5506",
"kX c #CA5A09",
"lX c #FE4305",
"zX c #E95506",
"xX c #FF5904",
"cX c #EE4704",
"vX c #D76708",
"bX c #DE7B0F",
"nX c #C76F0D",
"mX c #FE6503",
"MX c #F17105",
"NX c #D48714",
"BX c #F6A419",
/* pixels */
"< % 0.R H vX2.% < < w w < % 4 p w w e w | P e u ~ 7XI.! ) @.t K 0.[ w 0 % > > Q Y $ w % e x.+ < w w O #.R $ o.i.n < k k < i r k n w e e % p s.j n z z n z e e k e z i J L.6X{.m.E # j ( :X3 % > > < < < j < 1 t 1 < e ",
"< % P U.kXjX: % + < < w < w 7 u e w w w w < w q > > I t t u } | I.4.5 I I : 0 + ` I % < w ;.1 > w w w W 4 j k m I j k k j u a j k < 1 w < < >.k.x z n M x k w 0 0 < ) 3X5X,X( q < 1 g C./ ; o # % o > < < 1 6 7 > % < ",
"> w 2 T.mXoXX < < % < < % % r 6 w w w w w < + , 5 0 0 w e j e , 5.2.7.4.q + < + % 0.( + , : > 9 $ 7 W 5 + r q e X.0.u M p u e.| k j e w < < r r e k n n n k 0 I M.( m.N.R 7 % j < k s N.Y # > % < > 1 e < < < < , > % ",
"< , ,   3.E., q < + % w + + , < + w w w w w 0 & 3 % w w w q r 5 r q | w.$ w < > w 0 t./ O > K P ~ m.K ( > % w w z +...k z k.R.9.$.M M x M z k X.j j < % j =.!.q.I v w 5 g k e k 1 v j _ ( d ; 1 > 1 z j w < 1 j w 4 5 ",
"< 4 < % , P < r 7 1 > 0 % < 1 : + o 0 w w w > K > + < + w } q w j 0 y @.> < < w w j % OXA.m.,XV.P , X G I 0 w w z j p p z V +.u ..-.j.V B B q 1 < < w r 8.f.X.j j z v b k k v v v k s E T < , w w e v k e e 1 j k w 6 ",
"q 4 w 1 , , % w w , 4 I 5 < : 3 P > + w < j 7 K % w < < > w w w e e e ..< q < w < e g ( ].H.,X: $ + p.G 5 % e w e < k i M C a v w n l.j.M j w 5 k x I u.:.l z n n n b v n v v j k v k 2 5 < 1 w 1 w w w e v n w 1 j k ",
"K t < < w 1 < 0 + w % > T N.) 4 : r , < w 0 4 5 % w w < w w w w w e w ..u j e e < % > ^ > P H $ > a.v.> 5 1 k e j w e N z C m C z e B n <.j.m p J.'.I n c n n n n z X.5 j z j n j j k P P w v k z k w j u w < w j k j ",
"/ % w 0 4 1 1 5 4 + w % > : 4 {  X[ , 4 5 < 5 : + e w w w e e w w w j < r < w 1 % > M.T > A.2.q r p % w > 2 e z e z w p z n x C B e z M V l.=.m.|.`.b b m u v n x j 7 H 2 i b 1 v U 7 Y g.v k e z k v v v < 0 w < w < ",
"3 w 0 t F 0 w 4 I P 4 4 < % % % | {.Y.E.4.! -.> + w w e j j j k j e p 1 ..r % w o W J 8 ) 5XyXq % + w e w 1 w w q k k r q k z V V B V x k u X.o.o.h.M M N n n :.+.U 2 6 i X.Y Y I P r u k v z v k k e j , > w w w e U ",
"w < < 4 w + w % % q , 5 % < w < $ 1 K P.<X#Xu.+ O 9 % % w > % w s w j w r $.2 I P./.Y R :XY.t 1 w < < w w < < w w k x e e k e x V V V V N @.m B 0.m v n j k z k k T P w w + + < w j v u < y e j v j 1 < e < w w 1 1 u ",
"4 1 > < w < < w w < % 4 q % % < < < g + D (.).S.B.^ 8.a.,.>.>.;.x.w.R T E D , OX@X| m.>X3X2.. < w + + + < + o + w w k q t k B z B V B k.o.X.V N i x z < e < < < s 1._.s e < > j n M k ..q y < < > < w w j 1 q : < < % ",
"q w w < w 0 w w w w w q < w < % < w k e : ) +XQ ^ ^ T.sXsXaXpXpXaX7.^ ].#XOX#X!.: $ > : ;X=X3 + > w < + < + + w % < w w | r C p p V V =.Q +.N v u M n e < < , 1 < a.s.s < # % > w j k t : Y Y , > < < < < 6 : P P % % ",
"q g w w w < + < w < < w : w w w < w k w % /.).+ $ 0 9 + 0 e < w % d % 0 < < y.R g < < % < ` S.> < < < < e w < < > + q 4 2 ! J $.p.#.P 0.o.Z Z g.h.z k x < % < < g &.U j < < % > + + % L R r.W < $ < < < < < w 4 U 7 t ",
"U.U 0 w w w w w + < w + 1 < < < + < e j > :X$Xw < w e w e e w e j k k e w 9 *.#.% < < < w 9 ( R % < > < > w 1 < w < , ] m.M.W 0 e 1 w e P i l +.*.k k z n w , 6 1 U i j < > < < + % 4 4 } X.o.8.o.% 9 0 w < 4 ( > 1 i ",
"T N.T w r q w w w w w < > < % w % < % q m.V.m.< < > < < + w e e e j j < < w X.*.j 1 1 < 1 j 1 R 1 < < < < < 1 q 0 ; y tXn.P _ 4 0 < < 0 6 L , Y m.1 o.4 u v i U I M.6 0 0 > # > + > 5 < < w % q f.m.R X.w 9 5 I < w 0 ",
"g 0 J.W + , w w w 0 + w w < w < < < @ q.!.3 I < e + + % + 0 w w w k e e w e % q.7 < > , < w < < 1 w e w < < < q : ; 1.tXS 4 } 5 % j e < j < + 4 t.@.y k e j w % s 5 Y % w j o + + > < 1 , % < + @ U 0.^ ( i 7 > 0 k 0 ",
"k w 0 5.) > % < < % w < w < w w <   9.XXT 4 P < w < + + + w w + % w < w e j g I q.g 1 < k < < < 7 > e e j < % < 4 - s.s.& + P Q : 0 < w w w 0 q.#.> < < j j 1 > + : K t < % < % + ; < 1 > % < < + % O % I T `.J.( o.} ",
"w j w 0 OX;XW , w < < < w % + O O 5.<X& 2 J ] < < < < w < + + w 1 < < w e k k e OX6 w < w j 1 % 5 P % j 1 2 4 4 5 ! K : < X 5.,XG $ < < w 0 5 = w w w < > j 1 w $ G Y 1 : > < > ; + % 7 < < % < + + < < $ $ < 7.R | ) ",
"w j e 0 >  XMX| % < < w < + ..5.B.gXT 2 9.{ 1 w e < < 0 0 > : & 7 > , < % > < s Z.( % < < w j 1 < y.R P Y I 0.q.t.W > w + Y ~ n.N.+ w < > 4 : w w w w w < e j w % P > % % > > T Y > 4 5 > < % < > + + < < < + w r 0 0 ",
"e w w e w 0 vXXX: q w > < O T.xX5XJ + 7XbXq o w e < 6 Y H n.H ; + } @.+ % o > w 6 @.< < < w e k w 5 ! 1 e < : > < : w w > K 2 S G.3 1 q r w w w w w w w < j 1 g 1 6 > > + % + > < > t 7 % < < < < < % + + w w + w e e ",
"j e w w w $ p.lX' o $ 9 0 $ 6.xX1XA.R.E.sX7X3.W P P U 7 7 3 : % > u } 1 < < < < < T 1 w w < 1 k w 1 G 0 | 8.p.,.7 : + % 5 P O T /.r w w w w w w + w w e e w < 6 P w w % # % > # > + + % w j < < % w < + < < w < w w w ",
"w w e e e e 1 eX3XW.P.Q P F hXMX6.^ H o : 1XU.= q k w j j % < 1 % e 7 1 < 1 j < j 0.5 w 1 < w k k 7 5 : < p } ;.w.) P F @Xq.> | #.w < w w w q u p 0 < w w w < 7 7 % j > > > > % + < % < q w 1 w 0 q e w w w w w % w w ",
"w q e < w w >  XhX0XuXkXeXA.lX<X2 J.G w % .X}.& 5 w < < < e b C.I 4 r w k < w w g ~.^.% e w j w 4 F < , E I % % % w w q t.| G > 3 q w 0 < e w w z.;.< w w 0 1 1 j < < k 0 < > % + + > % > w j e e w w 0 0 w w e 0 e k ",
"u j j < e % 5 zX7.# g g k 6 e.<XI 7.X.w < $.B.2 < w < < % % ( ;X@X~ 7 e k 1 6 1 j 7 #X) w w e 5 1 w > 0 < | e % w k k o.4 O 2 0 r 5 w w w w w % % r r u y y u k > j < > < < > % > o % 1 3 4 1 4 i q w + < e w e e e j ",
"Q.k U h.e % c.zX} I e k z k e e w e j e e w < 1 j j > < 1 % | 2X2X#XI 3 5 L 5 4 1 g 1 ( > % 7 7 0 < w < 0 0 w w < w < R , w 1 + 0 = w w e w 0 w w % % % j a 6 j w < < < % < < < < # 3 H S G S , 1 e < w e w w Z n w w ",
"N.U u k j % X.!.1 q w k z z k w e w k k 1 k j 1 < < < 6 , w $ B.,X2X+X` F 3 1 1 w 1 0 U I 0 r e w w w w < < < < w w u , < w 1 e 0 = } w e w w e w 4 7 t >.p. .1 < < < < < j w < w , Y H 2 2 Y w % e % < e e l e e e Z ",
"z z k k e 1 % ) o.j e k k k k j k j z k 1 < w w w < 0 : e e 1 m.Z.OX) 4 1 w w w j z k 1 U v j w e e w w < w < w % e O.z + w > e w O } w 0 q e e q q 1 q u u k i X.1 1 6 < 1 e < < > : % + 0 t 2 w w w < e l e k z p n ",
"m u 1 j j j j r.( l v z k k k k k z j j e 6 w w < w } #.4 w < B.R 4 I P 1 j 1 j k n z k 6 b e k e k % 1 w w w w w : 1 k + w w 0 + + ; a.} 0 < e j g w w % < j u < > > > 1 , w j j % + < + + > 3 > + w + w w l C Z Z e ",
"m b o.e e k x p / w u a k x k j w r o.v 7 U 0 w j 1 U u 1 1 w ) ! g , 4 U u < k n n k b 7 z e M x k q u 0 w < w r 4 0 w < q w k w + >  .7 P + w z w w w < < w b > % > % # < < w k 1 < < > % > 5 o o + + > 0 w e e z n ",
"x z v p u v k j m.7 e t 0 e e q 1 1 ( | Y I X.r e u z z < j w ^ B.j j + < 4 6 j j 1 j X.q.X.u r n z z u q e w 1 I > w + < w e z w % w r $ P K < e w < < < w < 6 w < % % < < < w j e < > < % > 4 + o + + > w + w l e u ",
"z z C x k i 7 u XXe.y a q u e w w < < j < 7 P I < j N n j e w P M.T U , 1 < 6 6 j j e 1 o.a v k z w x i i j e t < w w w w w w k w < 0 r r o P P w w % w w w 0 1 w < < < < % < < < z w < < % : 4 0 + + + 0 e Z w e q } ",
"k z k C M p 1 u kX9.r k m k w w w < k j u i 0 4 I u z j v k # | N.3 1 1 : L 7 7 1 j v e j n M v M n k x n j i 4 w w w w 0 l e w w w < < 3. .9 5 3 0 w w < j 1 < < < < < < < < % < w < j 1 2 > 7 > + + + w q n z e w } ",
"e k w e x 6 C h rX,.$ e M w < w w < % % r U w % v X.< k l e 0X<X#XK.i 0 + , > 7 6 6 j w w k w u N N n b z v U < w j k < w < w w j z e < < ] 1 w T I 0 w e w , < w < j w % < < < < < # < 4 , > j 2 < + + < k z k z 1 ) ",
"0 w 1 > @.( j q nX:.j v q < < > w < + > % 7 < k w j k j +.w.yXt.z u s.P 2 , e C w U 7 w j 1 w w c M x *.X.7 k w w w < w w < w w j e e 0 , } u q 5 N.( e , < < < 5 7 e e w w 1 < % < % : 1 > 1 1 , : % + < z k k z u ~ ",
"B.F.|.hXcXMXnXNXBXs.j M j k w w < w < % % , 1 j w k j 7 4.w.# j k.a a.A./ o w n z b Y 1 1 v u 6 i m b h._ _ k.b w < w j w w w w z e j q y > w q 0 X.n.D : w w w w 1 > > w e 1 < > % , 2 6 : ; > , P 2 > > w j x c I Q.",
"o.m r #.,.c.x.dX0XkXe e k e j k < w w % + 2 , % k n < 5 n n a u +.v % < D Y 1 j z z z 7 g.b m v u 1 n j P b h.b w < w w < + < w w j e t > + + w w 4 m.W | % w < e 0 w 1 P 4 j w < j 4 2 1 < % # o > 1 q > , @.t.i 0.N.",
"N p 6 j l g j g h 7XoXW % w j n < < k > % 4 : + k z 4 , z j z 7 p z o + $ > 5 u j w c n z z z M j < x n 1 x n < w w w w < + + w < w < 5 w > + < w < _ ` *.1 + w e < , , 4 r q < < e Y 7 z k > + + + + + < < e g.n.C._ ",
"#.7 N z e z C n w '.3XH.E $ % w 1 < % w % : > + % P | < > n k m n n > o < + w 1 X.h.b 1 k l z n > j V 1 j 1 < > < w w w w + < + < w < > < w % < k 1 < 1 _ G . j , : 1 < < e e < 5 2 T I z e < < < < + w < > 0 o.N.P k ",
"r e M n x e k z p 1X2.< Z._ 7 : + 0 % % w > + > 3 5 M k % j k j z e + + + + < + n k.m Y T 7 ; + j n 1 < k < < j w + + < w < < > 0 w u < < < < < w k e < R N.3 E 5 1 0 w w < < % L P 0 P 6 j < < + + w + : L ` OXI e e ",
"e e e k k k B g 3.4., k < ) B.].) 2 : > 6 5 2 2 : % k w > j 1 z k % + % + < + + w j n j 6 5 U 6 v k , < k w e M w + + + o < 0 > 5 4 , % < < > % < k j e , '.&XW 1 w < w w < w % w.7 w % 1 z w + w + + O   M.4Xm.> e w ",
"w w w w e e 0 a J.: w w w 9 + Q +X/.0.I I / 3 % # < j < # < j v M 1 o + + % < % w k n w % < z m g.U 7 v j z v n q % # % > % : > r R 4 + < w % < < w e j 0 y.J.$ w w e w w w % t #.O e w + > w + < w > / &X4XH o + < w ",
"v u w k k e % 7.| > w w e e l w 2 P 1 j e U 7 w < w v > > + < 1 < e > % > > < z k < < w < e M V 5 v 7 I $.=.M z < w < % % 1 3 < j , 7 4 < < + + $ w e 6 > _ i.< k w w w w < j | 7 o < w < + < + + % P S.N./ ; + > 1 < ",
"r p j < q 0 } A.w u < w w e e k j % j z < 6 P w < w N < < k < n z % < < j z > n V z z z j n B T P N M u I +.z j % e u y P 5 < < w < % , % > t ,.w.Q ( E 0.W | 1 0 w w > < > < 1 w % + < w < > < + P f.>   + > * = 2 > ",
"k j k w q 1 m.m.+ , w w + w w w < > % < j , U N n k N z j v k < 1 < > % < k k z w z M M x Z +.R k V c ,.$.X.o.3.s.x.,.a 7 7 j < , < 7 y.{.wX9.8.| 2 r e q i.I T P 5 : P 4 1 < w w > % < w j > , 2 _ @.# + o F P + % w ",
"e e e w j e m.E % w % + < % < w w < % < < < i z N j n n < k N < < < > # < % w z j k k B V M ( 4 M V b *.e.-.o.u p q r w =.( 1 P E P ~ ( $. ., < + % w w > e.i.: 4 4 % + % < % j w % < % % 1 u , : yXt + + & * + + < < ",
"e z w w k w q.4 + < w w w < < j w % < < < w j 1 z M < n k 6 n j < j < % % < < e n n e v c d..X5 h.7 b n k g Z 0 j e ..+.8.I ; r > w > % $ $ O.<.% < % + : /.%X: 0 0 w < > , , , } 7 # > : } q < $ 0Xy 0 + & 1 w j < < ",
"e e w w w e #.+ < + < w < w < < < < % < < z 1 1 < M j v v , < n j < % > o + < < > j M j j dXa.k k T 6 k 1 e n n z 1 1 k 1 1 < j < < < + < < $ #.R < w > : 2 F.Y % w w 1 < , 4 E H Y P : > > + > + Q 4 k e 2 < e M e < ",
"k e e w e w t.1 w < < < < 1 P 7 e > < < > < < 1 < k M k n w < M j v < o % > + % < % > % y x.s w j X.Y < w w e k j < q 6 k u < < < + < < + < + 5 ! e 6 4 < @ R 6 w e w < 0 1 E D 5 5 5 , > + w e % q., % e < % < k z j ",
"e e e k w < ( e w < < < w < 1 w w w w 0 > w q < w w w w M n < V M w z < % < > < + + + X 9.y % e j B N U k v z w w w u r % 1 k w w < < w < < < 0 7 P 1 w < < I 1 j w < e 1 2 1 % > 5 7 j < < < % 3 }.1 % < 1 w w e x z ",
"w j e e j 7 q.% 1 j w e j < w < w w w w w > , w w w k < % M e j V M z n > > j < < >   2.q.# k n n n j v V n z w < 0 6 5 w 1 k j w w w < e j % w p P < < e 1 @.7 % < 1 1 1 w < < < R e < < < w g #.4.$ < % 1 w 1 e z z ",
"k e e e g &.y.% j e w < < w < < w < w w w 0 4 , j < w w o > n n j N z 1 1 k x n e z : I.> < k z n n M V N n k w w z e T e 7 p j w w < % w j w w 1 2 6 4 1 > C.m.% u u k k w < w 1 ) 1 < > < 0 6 t.% < < w w 4 4 w w v ",
"w j q w g ( q.j e w < w w w < % < + + + > 0 , & 0 w < < < # % < w j 7 1 < > V V z % #.I.  > z k z z z n z v w w k e % t.P 1 v z j e e w w w e e P 2 6 4 5 % L B.( q w k w e w < > T 5 % , < % ,.O.% q , w w r t w w e ",
"j < < 0 i {.i j j < < < w < < < w w + < < < 0 I P % w > < % < w g g.7 0 > < w n z g !.q.$ < k z j M j j k 1 : j w < 0 I P < u z k w w e j w j w 3 : 7 6 H / P ].Z.$ k k j w k q > q.W 9 $ % , $.% + > w + < 0 = w w w ",
"6 %.#.: ( m.% k j e 1 < w < w + + w w w w w w > T 1 < < % < w k E U M k % e n M z i.H.k j < w k v k n z < w : > % % % , L 4 P j z w w w w 1 r 5 5 5 3 L M.-X:XQ C.I e 1 k k e e 4 T W.q ) t.J.I.$ < % e w + + = 1 w w ",
".X7XgX*XG.C.j k k 1 1 j % w w w + < + w < e w 0 1 U w j k < < > L u w j < % w x c @XU.9 q k % e M z z w j w < 4 , , 2 R m.) E $ w w w < < 1 , r 7 e 5 ! m.S.G.5 P G 5 > w j < 1 3..XxX X~ I $ Q K + + < w + w ;.+ < < ",
"p % 6 _ Y Q.6 j j 1 q w w w w w w < w + 0 e w < % 4 5 1 v 1 v 7 < < w w e w % e j U.o.x % j e < k z < < < < < 1 & 2 P t.(._ L.T.3 , < w w w 0 w 5 k k i 2 I ' P 5 Q Y.T.Y W J.q.P.T.7.U . % 0 > n.L $ < w + ;. .+ < w ",
"w k < < j Z.7 0 w 1 e j e w < j w < w w w w w + % T ) q 5 x k z Y T < < < < < w k [.7 k e < e < w w < w + < % , > % % + q.S gXeX# < < w w w w > 5 x e e < w : q j 5 | P.W #.I } | ( 4.P % < 4 > + _ Y % q O <.;.O < w ",
"1 k j k g #.~ + 1 6 1 e w w w j k k w w w < w % , 3 5 2 I 7 < w j v 6 1 # > > d 3.0.w e z w < % w w w < < < 1 4 < < 1 < ~ jXmX2.$ < + < < + w > t e w w w w w 0 < 4 % + q e u e r T [.K 3.~ 4 < + < t.I $ < : t < < 0 ",
"j k 1 j j > }.3.1 4 j j e w 1 < w k e w < w u r < % Q ! 4 @.< < < j w e < % % 4 Q 0 q w < w w < w > e j w < 4 > + > % , > 9.zXw.$ < + < w < + < r < e 0 w w e % % 3 e w w w w j 6 | [ } L.r % < + % 0 t.Q + % 2 + % P ",
"k k j j u 2 P.K.h 1 1 j w w 1 w w j w w < q p e k 0 ^ U z v i w < w j k p < # @., + w w w w < w < w e T 6 2 1 w < < < 4 < X 3.] q 4 1 % + 0 < < > % + % e e j w > G > % w w q } q q e 0 w.| % < < < w g y.n.o ! m.n.~ ",
"e u v v v k j /.&.:.#., > $ 0 w q w j e e w w w k &.G < u z n z w < < j z < 5 *.0 w w w + w w < < w + Q C.6 % < w < , 1 % + 5 < + q 4 4 4 w 9 % 3 3 % + 0 > q 0 T P O < + > q r < w e w .., < 1 < w < w 1 ;X&X4X&X& $ ",
"k w j j k w w m.uXsXnXNXfXD.(.( W @.e e e r e e e } w X.o.k k e z k k k j % Y U 0 w w w w > w < < w < > R X.% w w < P q w 1 q > w w 0 < 4 G T J : 2 5 > + < e 0 T , w < < < w 0 0 w e g +.$.< e w w w < q m.Y ].G $ < ",
"< w < k j w I 4.$ w p x.d.T o.r O.o.t u e e w j p p e q z n M 1 z z M n z j P P 0 w e e w w w w w < < < ^.( 0 e w I K 0 w % 1 1 w + + 0 0 o K ^ J { t r ; q w < = > w w w w w w w w w w w  .e w q w < $ / I O ^ o q y ",
"w < < > k g R...g e w j k.g 0 w 0 g w j e w k e < j j w w k k e e w k k j 1 1 6 w w 0 w w w w w w w < O q.#.% 1 w ^ 3 0 w t 2 < 4 T = > w < + 9 > w.oX~  .J S 2 P > < j w e k k e j w k w < 1 % w w $ ~ Q 9 m.,X1.q q ",
"j j w w w a 7Xt q j k j r u w w w w q w w l e w w w w w w e e e u w w e k w q : w w 0 + e k w w e 0 w 0 I 5 w 0 < I < < w | < w w < P 5 5 , w < w $ 3 U. XeXB.).u O % w w e e e e z e u u t >.t > > ( ! 8 5 *XfX1.# w ",
"< 1 k e 0 %.#.+ e k M r r p 4 e e z k w w w e e w w w w w w w w w r w e k k w w w e w w 0 e l e j q q 6 y.K.) 4 | 5 < < 1 < % w w < 0 0 : 4 w < < + % 0 : Q {.%XW P 2 > < > < # $ + % j j $ 2 = 5 OX@XQ.N.:X|., + q w ",
"j < j k e H k < < l i } j n k e e e + e + e w w w w 0 w w w w l 0 w q w e e w w e e w < w w e 0 e e < 6 ! R I I i.5 1 q > w < < w < w < < r % < + w < e w + E ).{.S.F.U.8XqXqXqXqXsXrXM.U.B.I.) _ +X7 6 ~ ].3X* + < % ",
"v e e w n.T 0 e w *.T e k k z z k w w w w z j e e w w w e e w e e w r q w 0 0 w e w w w + e 0 q } } U W ) U r X.) 1 j e w < w < w w w < w , < w w < w e e w 2 @X~ > 7 t >.c.c.0Xc.0Xp.5 #.Q.y.OX{.4 % < O r |.G.4 % < "
};
