/* XPM */
static char *result[] = {
/* columns rows colors chars-per-pixel */
"107 68 42 1 ",
"  c #CFCFCE",
". c #D4CFC6",
"X c #D9D2C4",
"o c #D2D1CD",
"O c #DAD6CD",
"+ c #DCD9CE",
"@ c #D6D5D4",
"# c #DBD6D5",
"$ c #DCDAD5",
"% c #DEDDDB",
"& c #E1DACE",
"* c #E2DDD5",
"= c #E2DEDB",
"- c #E5E1D6",
"; c #EAE3D6",
": c #E4E2DD",
"> c #EAE5DD",
", c #EDE9DE",
"< c #F0E7DD",
"1 c #F1E8DE",
"2 c #E5E5E2",
"3 c #E9E6E3",
"4 c #E7E8E7",
"5 c #EBEAE5",
"6 c #EDEDEB",
"7 c #F2ECE4",
"8 c #F1EFEB",
"9 c #EFF0ED",
"0 c #F5F1E6",
"q c #F8F2E7",
"w c #F3F2ED",
"e c #F9F5EC",
"r c #FCF9EE",
"t c #F0EFF0",
"y c #F5F4F3",
"u c #F9F6F3",
"i c #F7F8F5",
"p c #FAF9F5",
"a c #F7F7F8",
"s c #F9F7F8",
"d c #F7F8F8",
"f c #FCFCFB",
/* pixels */
"w>*,qqe8<=777;;<q17qq;51&&-,;=X3uqqq*;quew03-peq>rq0q1;1,,rrqq-0e071;1>r00p70pepw=tue>36q8q55e=<ut3qe:8qet7",
"*-;377677**<*1qqwqqee,>>1q-0eq1=qeqe**351777&ppqqrerreqq+qreqe,,r0,100;-775>333::5683ete86ee8>==3:ete3tuu83",
"qeq=<uquqq*Xquqqqq873*>;37,$wq8q;7f3;e,w8pee*9w,377,,>,,-rrqrq509,0q0rr-pw90eyp:wf8:8fssst887t8q<=uut3t77=8",
"ueeq=uteqeq.*qtqwrpe*;0e137;&uqqu5=7pp77pepp>-7>>,7770r,-07999>9prr7,>1>0eeruup35ewe=esueu5*=t7tt8:t755tt38",
"78tq>usepp&77&*=-26:>ueeeqqe=3pu8**3573=wyw8w%fppereeq7>>>570ww,795,9req-5e9yw9:8ey852t858w85:u8qt37tut7u8t",
"q5>>*===3O5uqqepep0.8uuqeyte8>u5*7u7733#:,,7>:-5;7wrp>5wrprerpp5;er90ewe7:y59yywpupuu2usuyeyp83wqt38ue86t55",
"speu8ete1&3qqqqqie-ew5upuyyy8o78ep8euuf>wpfe5>+w8q,3>7p05reeei50ppr9rqr75pp55iw7eyuffttuuu8pu86w7et58888stt",
"=upu7uue7O3peueue:pffpw855533=:sppyeueu75p550r-yppre>,ipewppy%epppwprrp9ppp75prwy5ayt3tu8yuy8y2wst566t8eu6e",
"==58w5>37;-5wppf*$768538uppppp72fpepe7pp$:epip53ie00we:wi3550w55955wprp5ww59:iwwe5w68y4yuyuyw855w86uyy88u57",
"377$:8epu3e7>38>>pw833:3wpffpei$wfuw3>5-wppppe,-ww90,9e:,p7wrp9rryr99w,3eepp:piwww9tffw23568w5yfyy3w83ypps8",
"pppw:upp768ur0$>puppq8u83:6w3533-353537,9peii00:pfprwp9ww57ppp5pprpp9,9rppppw65eipf9wp4iu6puyyt4y68yy788e8y",
"ppuww5w38fpw5O5eepepw8wppf%-ppppp$3pewwp:ypeipr:ifppp97ppp:yy5yprwp5,0997wyeu55ppy9yp6wpp8ypupt6u62wuyeepps",
"eppwfe2:549ie-peeyeww8wpf52ppeiipw>yw0wer6fpe57:50wi9wfiiw57wy9wrpp5ppri57w9e3wiw8we66fpfw5yw8$6fu46peuypsf",
"888355wpiee>owfppyuyew8pp-fppppfp39ppfiei53555,yppe7,7>9wippw7rw9p5wpiepypfpp6yfppyyy4iyw5w36yu73f68psuypya",
"w83wpepipp3:w09feeuueueu$5ww5335:5-69557-5yppp,0ipfiwp3weippp9w939wreirffwppi52w9wwyw:6yyppy8pey628wtyyyyyt",
"ppw6pief5>75>9>3wpfpuep32pyy9pewpew:wppp96fpp03w0w5wppr3pw59059ww3ypeyyww6649y4effpyyw4dpupywpye8$yyy888t:s",
"ppf6uuu5-pppe3ew9:5iep53pee9iiwwpppe:wpp47epf90perp7wpi3yp9pfpipy3397wieyii2ff829wweppy:yppwyuww56pyw88y66y",
"35686f:6ppyppe5iy9w::9%9ffyfpepeppwpp:ii3w95,:epppppw37w7949yipw2ifpifffpyp9ywiy3ffpuppy:ww6ww8y:5w68yyy=uf",
"8uw7:#yfppeppei3%iw5we96%46iipfpfpfffp53ypppe:699wif5pfffi3ppi5957fpippywppw5pfw9wppy06w2@fpeepy5fipspy8:af",
"pppfy2ewepppee0336ipffi5ww65329955979i:4fippy9fpiy556ffppp5p99pppw:ee9wwe05pww95i9693yywy5:fy652dfypyyyu:fu",
"piep56e6w9w5wpf5ye5iw59wppeip633ww8w8w@yffff6iffpf59fiyyp55iwwppffp-wffpiweypw2ppppfwipppp:3w65848yyeyfu%yu",
"fiep3ffpppie7w93ffi%wiffppppp35ffffpfy5w95w54eppfweffffpp3pppfwfpffw3ywypippu:ffppuwyeepw93%ppfffyy3>236636",
"eipw-ww9559755555yf:fffffppff5pfpppfy4fffwfffyww55fpipffe6fiffiifpf6w9ww6655:2668yuwpfy4wif94ffyufyyt=yfppw",
"w9w94pppi5ppppfew9::wffppppfp:ppepie5fffyifpffff95pipppp49wy996ipiw9iwfffpfw6pet652fyw5affpfy3uy86au6288yup",
"iy992fffywfpepi5p3ww556wyypfi5fpipf:26wyyffpffffe5fipip9pfpfyy65y4wffiypppp3fpyfff8=99yyyyyyy2yy2wy6wup62y8",
"yypp2www6ypppp0yw2wpppuw656e5:w65w9:fpy649fiw9w633955973fpffwef5ypffffifff66ffypfff:yffffpupy%fay%6ypfpy6yy",
"fffp2yyw9623379y9wywffffi6356wiewi:yfffff7$5eifffpfyfff59yww6335wyw6ww6yw62fffiyfpfy5fpppyipf5:6656ywyyuffy",
"ppf5wffffpwpiw::ifpiypw935ffppippy2fpfppfpi3fffffifwpffe9fippf6ffffpffy:pfy99wfywyyy4ypppyp956%afpy6y6yy663",
"fff4fpfffpyfppfi4yyw696yfp96ppypf6:5w555555%ffffidffwfpi6fpppp6ffpfpffyyffffpe26yuff46y69w:6yp86fpp56662yya",
"6e96t8pffypu7pppp%2dffpppffe3if96yf6ffpeppp:ffffffpfwipw5fffpp5ippfppwyffippfy9fayy48fyyy85puf64yyy2fff6fuy",
"4wyddy649yffyw9wwif4yfpfppffp939fppp2ffyppf35iw994966wy64ffpff9ifffff6yfppfpy5fffff66uuw623uypw4ppf6wfy6fyu",
"yffffffyw6yw556pffywy4wyifffi39ffiffy4ppppf39yyy2ffffff6fffpii63yyiy46ffffff6iffpww4556wye:wyy64yyy66f6afty",
"9yfffffff62pfffiy6tffffy9ww94pfypffpfi54yfp2ffff4ffffff65yw5986iyyyyw69y696y:9y9wyfffp683535y6666wyyy62tytf",
"fpwfpiyyy2ffyifff46yyydfyyf2wffffppppyww696ipyfp2fffpffp%ffffffppfpp6ffwyy6p66fiippppipwyy:5wu26ffyaafa6#=:",
"y94669wiy2ffpfffw2yfpyyywy64y69yyifiwippp=6y5ypfy6fppipf5ffffyyfypfytfyffpyfi3fpiippppiwu6ypppf2fuyufff2tfy",
"ipffyfffft4ffpp5yfwfffffffy6fffp9664yfpy583$:66wy:ypyyfytfffpyfffpf56yyippwii:yww79556262wuyupw4266tty24fya",
"ffffyyfffff6df45ffy6ppfdpfi4ffffdfffy466ff6ffyw6w3$y66y5466iyffffff5uiyffyyfp%yyywie5wwwyw36y2tfyuyya6@fpaf",
"fffffwfffffy56yffff9fffpfpp2fffffyfi6ypffywfffpfff:yfffffww526yyfif4wy9pfpfy5ypfffpfyiffffa%$ffffffff%tfyuy",
"6iywyiyy646iy9fffffdyffffff6fffffy=9yyyyy2w7wuyppfi%fiyyppfffyy$@yyy6i62ww6%yeffffffd6iy6466ttyffffff@yffuy",
"y6wyyypiyywyy4ydyyyy2wyyyyy45669692ffpfff6$eufpfdff:ffffpyipffd59yyy6y529y4yy6ywyy69955otffffft66ty44 tty6y",
"fyfffyidff6yyy4266663$iyyyyffyyfffy2ffyyti66iyyyyyi2wfffffifp54ffapy6ypy6y46f:6yyyipfw86=dfdffyfddsf4:24622",
"t6yfff9fw6yfffyyfffff6wfffffffiyfff94y6fffd6ffffffftwpffffy6y9yfpfd9ffyify2yw%6fpyiy43yfy:ffayafyyaf%aa6fyu",
"ffyty66yffffffwtffffip2yffffffffffify64yyy66yiidfdf25:565966yfw4upy6pypdy:ypfy:989ypyyfaf6%aaydyaaft:aa44yy",
"fifff49fipypyf96fffffyy2yfyywipyfffy54ff49ww6wyyy655piyyiffyyyy:yf6yffff4tpwif2fyypfy6auya4:ffytyfy%aaaa22w",
"fffff4fffpyyffy6fyfffwp45yyy6w646w66d6fdyfffiffffd4ffffpfffyyff64626tt84afaupf2yypiyu4pyyw6@at644t%6fffaf2%",
"y6wy64ffffffyfydfffffpp2fffffffff4yfff6tfipffyfpd6yfffyffffwydyy2tyfay242683648y59yiy8uyyyy%dyyaaf4446aa66y",
"fiff2ypfffffff6yfffpfff4fffffaffy6ffay46ffffyffpf4t96yffyyywayy26fff66ytyufaf4y465www66636y:yadfff4ff42aaa6",
"ffi4yiwy66t9y664ffffffw6ffffffff6ffffyfy6fffadfff6ffayy4affffff484642yffayaay4fyywwyp486664:ta24tt9aff2tfy%",
"fd4fffffffyy4fyy8666t64yyyyyayyf6faydff6f66y66yy4adffffyyyfuya66ffp5:fffddfy66fyyy8t44yadda4yat:aayyaay424y",
"y4yyyyfffffw6ffffffdf4tfffafffffy6ydfffa6ffffffdtfyffffff64642yfyyyf44ffayffa4ffafuy4=#tyyy2daa4%44tw643%45",
"yfffyyyyyfy4pypffyffy6ayadydfdyat9afd4affffffffyyyyddydytyydfy5uyyytw466y6yya6fdffu46utadsf96ff6:44y6256yw6",
"daffffffy64ffpffffff4fffadd6ttafffdyay6ffffffff6dydaay4dfffaffa4y9taffyyaty69=yty566yyfaasdf6t44644%:4fayyy",
"fyfdffffff44yyffaff4ffffffffyfafffffffd6aayfffatfffffftffffdffff2adfdddtifffy6fff66tat6tyayty6ttt422a8yfyyy",
"fftffffdywyffyydff64dfffffffyffydfyaffft4fyaat4yyffffy6fdyyyyyay64fffffy6y6y4yfa8aa4tyy96tyy6ty234#6t8684%4",
"yyayfy9yyyfffffyy4yfdytdfffftfffddffdyyyyfffyyffayyyy4fffffafyfad2ty96taaayff6ytfafffyffa4yfyyy4486#4yyt82y",
"fyyyt6ffffyffffa4ffffffyafffyffffdyyyfff6ffyyfffffffytyffffyfffyyt6tyy6fffffyyytfffafafaty6f64yt436#2fta2wy",
"ffff6fffffftff66yyafffffyty6yffafttdfffff6dffafffffffa4yyyatad96aafffftyfffdyffdtaayata6yfy2tdaafyy42fa66fy",
"fffyyfffffff4tdfffayyyaaffffadyyfdaffffff6dayaffffffyyffffdtt9ya2adffff4faa9tyfaffdtyf6dfaay9fatyyt@tft4uf8",
"yyyttyyyyyyy6fffffffa6affffffyyaffyaffffayffa6aadffa6ffffffftdfay9dffff6yaydyadaufytfftfffff4ffaaaft24yfayy",
"ffffffffffff4fffffffaftyffffayfffffyyydfyffffyffff6yfayfyfffa6fffaaffaayyffdayffayyffyafffff4fffffff6%fyty5",
"fafffffffffyyffffffyffffdyffayfdafdfafatffffyffffaaaffffa9fffdtfa9taydffatfff9aytyyadyaadfy4yaatayfy*3yyya6",
"ffyaffffffy9ffffffffffffffytaytdffffffftfffdtfffyffafffff9ffdatyfyadfffffttayyaftdfffdayadt4aaayty4y3yyffyf",
"fffffffffftafyffaayfffffytffffyffffffdfyffffydffaayaffffytfdffdddfayffdydttiffdtfdaffffffftffdyyay4dfffff4y",
"fdfffyfffffyyyfffy4aydyytyaaaytfdfffdafyfffaffffyafyyfaaaaaffffftayytadfftydfddtffyffffffatfffaffy4affyyyya",
"fyfyfyyaattaffffffyffffffffffydffffyaffaffyfffffdaffatffffyaffffaffa6ffffatfddfaafdtyfffdyfdadfyydd9tdyfffa",
"ffffffffyyffdfffffyffffffffffyfffffyfffaaadffaafffffayfffffyafdfaffayaaafftffdaftdffayaataffffdaffff6yddfyd",
"fffffffyyfffdfffffyafffffffffyfffdfaafadfffyffffdaffyfdfaaayafffffadyafyfdytdffyyddffffyafytffaaffdada4dday",
"fffffffyfffadffffffyfffffffftfffffffyffffffdfffffaffafffdfdaadfffayfdffyffddadfydfffayaddff4affyytydff6dff6"
};
