/* XPM */
static char *result[] = {
/* columns rows colors chars-per-pixel */
"128 80 38 1 ",
"  c #030303",
". c #080707",
"X c #070807",
"o c #080807",
"O c #080708",
"+ c #0B0A0B",
"@ c #100F0F",
"# c #110F10",
"$ c #141313",
"% c #181717",
"& c #191817",
"* c #191718",
"= c #1C1A1B",
"- c #201F1F",
"; c #22211F",
": c #211F20",
"> c #242223",
", c #282626",
"< c #2A2827",
"1 c #2A2728",
"2 c #2C2A2A",
"3 c #312E2E",
"4 c #32302F",
"5 c #312F30",
"6 c #353232",
"7 c #393636",
"8 c #3A3837",
"9 c #3A3738",
"0 c #3C3939",
"q c #413E3D",
"w c #43403F",
"e c #454241",
"r c #494646",
"t c #4D4A49",
"y c #514D4D",
"u c #53504F",
"i c #565252",
"p c #5A5656",
/* pixels */
"                                         .         .    .                                                ..+++++@++@$$%%$+++$#+X",
"                                   .            .    .                                        .     O......O.+++$$$%%$#$%%$+++OO",
"                                     .            .    .    .                                 .        ...++++$#$====*%%$#$#+OX.",
"                                              .     .   .     .                    .    . . .   . O......+++++$$*=->>-=*%$+++OOX",
"                                       ..    .  .    . .          .    .                .  .. . . ...OO+++@+$$%=->,>>==%$$#+O.. ",
"                                     .    .       .        ...                    . OOO.......OO....OO++++$$$%=;><212<-=%@@+O. .",
"                                   . .. .  .   ..   . .  .   ..   .   .               .OOO++X++OO+++++@@$$==&>,<26663<>=$@+O.   ",
"                                ..  .   .   ...  ... . . ..     .   .   .               ...++++#@+@@@@#$%====>,2667764>=$@.     ",
"                              .   .. . . .X    O. ... ..    ..   .   .    .   .   .           ..+@@#$$*=-:>,127788761=+.        ",
"                            .  ..  ..  ... .OOOO.. .... ...   ..  ...  ..   .  ..   .                 ...+++X.X.                ",
"                          .     ........ XXXO+OO.... .O.. ...  ... ....  ..  ..  ...  O.  .                                     ",
"                           .. ..  .O. ..OXO+OO+O...OO.....   ..   ..  ...  ..  .+  .O.  ..  .                                   ",
"                         .. ... ...OOOO+++X+++OO++...OO...... ...  ...  ..  ...  ++  .O.  .   .                                 ",
"                        .  .  ...OOO+++OO++OO++O..@+...OO. ...  ..O. .+.  .+. .++  ++  .O. ..   .                               ",
"                      .  .. ....OOO++++++++#+OO+@O..+@O..O+...O+.  ++. .+O  .+. .++  ..  ..  .o   .                             ",
"                       .. ....O.O@++@@+O@#+++#@O.@@+.O+@O...OO .O+O .o+. .O+. .@+  ++  ..  .O   .                           .   ",
"                        ....OOO@++#++@##+#$$+++#++++$++o+++..++O. .OO  +++ .++. .++. O+  .O   .                            .   .",
"                       . .+OO@O@#++@$#+#%#++$#OO+$++.+#+O +++O O@+. O@+. .++ .+#+ X++  X+  .+                          O.O . .O ",
"                     .. OOO+O+#@+#$++%%##%=$O@##+++$$+.+##+ X+++ .+@+ .+@+ .+#. .#+  ++  .+                          .X .      O",
"                       ..OO+#+O#%+@%%##=%##%%#+@$$+++$$+XO$++. +@O  O@+  +++. +#+ .++  ++.                        . O .O..OOOO .",
"                       OOO+@O@$@#%$+$-=+%-=$#$%#++$%#++#$#X +@+O X@+. .@@O +$+. +$+  +#X                        ... .. OOXX O O.",
"                   . ...O+OO$@@$%+%-%$&>%#*=%++%*$++$=$+X+$#+ O#$+..+$+ .+$+ .+$+ X#$X                        ... . ..XOOXX...O ",
"                    . .O.O#@@$#@$=$#->%$>1*+$=*@+$==++#**+OO#$+. +@+. +$#O +$$+ +$@.                         .  .... ..XXO..... ",
"                  .. O. @OO##+#-$#->$%,,%$>>%@$-=$++==$OO#*$O +$$+ .@%+ .@%+ .+$$                            ... ..... X.O...O *",
"               .   .. OO +#+#*$#=-$%,,$=31%$:,&+$=:%++%=*+.+$%+O.#$#O.+%$X +%%+                         . . ......X.X . XOOOO $,",
"                ...  O..@O+$$+*:#$,>$-6,%=4,$+=,>++%>:$.+*&$O +*$+ X$*+..#=$                               O .O ..XX......O  O1+",
"                 . .. +O @@O$=+$>;#-6,$,81#%12%+%>1*++=>=+.+*=+ .$*$X +%=+                             . O. .O....XX.... OXX ,%-",
"               .  . .+ +@.+*#@:-#=2-#18,#,81$$,4>++=1>$X+==$OX#=%+.O%=$.                       .     . ..O .. ..X.XX ....   ===$",
"                .. ...+OO#@O==+*1=#,7;$2w2$=86&+=22%+#:1=@O#==#..$=%+                        .     . ....O O.X ...X.....   #,%=%",
"            .  . .. OO +@.#*+$>=+>5&#6e,$<e6$&37>@+>61$O+>>*+.$==#                         .  .  .  . .  .OO.OO.....o     X<$;$&",
"                O  O O@OO$++==+:2*@28=$8t<#>00=+=76=+$,2-+.$>>%.                   .     .  .   .  . ............... X. . >$>$=#",
"            .  . OO ++ #+.$=+$2*+,7=$8t<$2t7$%6w1++,75%+$>1>+                          .   . ...... . .......OX..X....   ===%=#-",
"                O..O O#.+*++:=O:6*+6e>$8u3#>rq&+>77=+%182%            .    . ..   O      .. . .  .. ........XX.XXOO.    @;%*=$=+",
"              .. O. @+.#@ %*O$3=+10=#8t2$3iw&&8r2++1e0=.                    .   ..  . ...O . . . ... .O ....OO+OXO...  +,$-&**#=",
"             .  O .@ +$.#*O+>=O>8=+2e,$8i6#>tt;+>qq,+                   . .  .   O  ....O . .  ...  ..O...OO+XOOX.. .  <$-$=$$*#",
"               . O. #OO$# ==O$5:+<0=+6t6@<it&#7uq&                       . . .. O  . .O.OO ......... .....+OO+O+O...  1=;#=#=$$%",
"                O O+.+$ +=++>-O=7-+1e1+2u8$=rp6+             .   X . . . O. O.O.O  .OOOOO.... . .......OOO++O+OO...  >>=&=#=#*#%",
"            . .. OO ++ $$ $:++2>O-0>+2t6+>ti<                  .  O  ...O O.OO.+  .OOO..O.............OOO+OO+OOX..  =,&==%=#=#*+",
"             .  + O+ +$.O=# =>+$7,+>t3+>it&      .    .  . .. . .O.O O+ OO.OOO+O O.OOOOOOO... .. O.OO.OO+OOOXOX..  $6%,===$=#=+&",
"               . +O @+ $$ #:++,,O=q3+>tt%           .    .. .....OO O.OO.OXO+O+ . O.OO.OOOO ......OOO+O+OOOOXO... +8%2%>*=*$&+*+",
"                +  + O$+ =$ =,++97o=rq$          .   O .O XXX+XXO.OOOOO++O++++O .O.OO.O.OO.+....OOO+..+.OOOO....XXe=5&,$>$&$$&+&",
"            . .O O+ ++ #= +>$ ,2@+qe%          .O O. OOOOOXOXX+XOOO+O++O+++++# O .+O+.OO..OO.....O+O++..OO+O.... w>6=2$,$=#*$#$+",
"             .  +  +O $+ %* #1%.4r=            .OOO.O..OOOOX++++O++O@O+@+#++#X  OOOO.+OO+.o..O..+OO++o+OO.... . 835,2=,$>#=#&$##",
"            .  O ++ +# +=O.-= %6;           .. .OOOOOO O+O++++++@O++O@+@++#+# XOO+O++.+OO+o+.O++O+O.O+OO+..... 46<22,,%>#-#&#$#@",
"             .. O. ++ +$ #=OX,>           . ....OO+OXXOXO+O@++#+@++#++#+#+#$ ...+.++O+.Oo+o++++X+O.+o+....... 1q,4><>=>==#=@&###",
"         .     .  +  $O *# =>O            .....OO@O@+++++@@+###$+#@+$+#@+$##  ...+.+O++O+X++++++O++O+.++.... >w,8>4=,===$=#*+$+@",
"           .  . .O ++ +%.O=$            ......+++O@O@@+##+###$#$$@$++$+$##$  O.++.+O++++++++++++++.+.O+O..O =e=w=7=3=>*==%=@*+$+",
"               .  +. ++ $*             . ...O+++@O@@+@##$##%$#=#$#@$@@#@$$@ ..O.++++++O+@++@+++++O+.O+...O %e=e=8&5&2*>&=$#*+$X$",
"           .  .  +  #  %+           .  .XXO+O@+#+###$$$$#$$$*#$$#$##$+$#$$  O+O++++++++@++#+++++++O++O..X $e=w=8=7&3%,$-$%&+$+#X",
"               .. ++ +$              . .XOOOO@@+@@##$%$%=#=$#=#$$#$##$##%+ OXO+O#++#+#@+#+@++@++o++.XX . +q&8=0=7&6&2$>$&#$$+$+$",
"              .  +  +O              . ..XXO+@+#@###%$%=%==$=*$=#$$@$#$$#$ XX++++++++#@+#+@+@@++++++.X.X +0$8&6=8&7&<$,$=$*###X#+",
"             .  .  +.                 ..O++++@@##$$$***-===$=$$=#%$#$#$$O. OO++#$+%$$##+#+#+@+@@+++O.. +0&8=6=6=6&2&,$>$=#$###+#",
"            .  . ..                .. O+O+++####$#$%$=**-*=*$=$*%#$#$$#$ .+O++#+#$$$$##++#+#@+++++..X X6$6=4=2=5;<=,*>$=#&@#++#X",
"           . O  +.                   ..X+O++#+###%#%%$=%*-*=**=$%$#%$$*  OO++#+$$$$$$$#$###+#+@++.X. X4$2&4=5=2=<=>=>$>$&@$@#+X#",
"            .  +                   . X.X+++++##%#%%$**$=*=-$=**=$%$$$$# .O++#@$%$%$$%$$##@#@#@+++O..X3$,$,=2->->;-=>*-$=#&+$#+++",
"           .  .                    ..XXX+++@+#$#$#$*#*$%=$==$=$*=#%$$*  +O+++$$$%$%$$%$$##@+++++OX  <#;$;&>;>--;;->=-*=#&+$+#+++",
"          . .                   . . XXOO@+@+##$$#%#$*#*%$*%*=$=*$*$$%+ ..++#$$**$*%%%%$$$##++++XOO >$:$=$==>==-=-=--*=$&#&+$X#+X",
"           .                     ...XOOO@+@@+#####%##%%**$=$**$=$%$$% .+++##$$$$=%=%*$%$$###+OX.. :%=$=%=%===>*;=-===*=#&+$+#+++",
"          .                      . .OO+++#+@+#$####%#$*#%*$=$*$$=$$=+ ++@#$$$%*=====*%$%#$++++O+ *===%**%%&$=%;*;=====**#&X#+++X",
"                                 . .OOO+@O@+@#@$##$+%#$*#**#=#*$%*%# +++#$$$$**=======%$$++O+.O #:$=$%$%$%$=$=$;*=*=***$$@$@##++",
"                               . .O.OO+++++@+@#+$@#$@$##%#*$$=#*$$= o.+@$$$$*$====>==*%$$#++.. +>#=$=$=#*$*@=#=$=&===*$$#$##++X+",
"                               X . OOOO+O+@+@+@#@####@%##*#$$$*#%%+ ++$$$$$&%=*==>=-=%$%@+++.. >#;$>#=+%#*@*#=$=$=#=$*$$$##@#++X",
"                                ....O++++O++O@++#+####@$##*#*#$*$$ .+##$+$$%%%===-====%@#++.X =#=+=+=+=+=@*#*#=+=#=#*$*#$###X#X+",
"    .                           . .O+OO+++++++@++#@##@##$##$+*$#$ XO++$+$$$$%%==-====%$$++.. $$%$=$=+=+=+=#*#$+=+=+&#$#$$##X#X+X",
"                                 ..OO+OO+.o+++++++#+@@+$+$$#$#$$+ +++$+$#$$%$**=====$$##++X +$#$%@*+=+*+=+=+=+*+$+*+*+$###X#O# +",
"                              OO...OOO+O.++++++++@+$+@$+$+$#$$$$ ++++@$$$$&$=*=&===%$$$++XX %+####+*+*+&+=+=+*+*+$+$+$###+#++O+ ",
" .                         X XO . .OO+XO+.++++O+++@+@++$+$+$$#$ OO@+$#$$&%%*=======%$$++OO #+#+#@#$#$+*+=+=+*+$+$+#+#+##+#X+O+X+",
"                               O.X....OO.+O++++++@+@+@+@@+$##$+ +@+$#$$*%=&====-==%%$#++O +#@+#+#+##+%+$+*+*X*X$X#+#+#+X+X+XXO+ ",
"                              X  XX XXXX..+.++O+++++@+@++@@#+# +++$+%$%$=&===*-*==%$$++.O.$++#+#+#+##+$+%+*+%+$+$+$+#+++O+.+OO +",
"                             X XXO.O. X..+.+O++O++++o@O@+#$+$ +X+$#$$%%======;==%=%$#++. #++++@+#+#+##+*+%+$+$X#X#+#+++++OX.OOOO",
"                          X O  O.. X.. .....O++++++++O+O@@+$ .+++$#$$%%%=========%$$#++.O++++++@+$X#+@$+$+%+$+#+$+#++X+XOO..XX O",
"                              OX X O..X....+XX+X+o+++++@++$. .++$#$$%%%%=======**%$$++O +++++#+@#X#+####@#+#+#+#+#++++++.+.X.X O",
"                          X  XO . . XX..OXOOOO.+o+O.+O+++#+ .++$+$$*$*========*=$%$@++ .+XX+++#+@@X#+#@+#+$+#O#++++O+.+.+ O.. X ",
"                               X . .. O  .OOOO..+o++X++++O X.++#$$%$*%=&=====***%$#@+  ++O+O++++X+@X#+@++#X#O@+#++O+.+.+.+.O X O",
"                            XX  .  X.  O..XXOOO+X+o.O++++  .++$@$$$$%&&*=*==***%$$$.  .XX+O+XO+O++X#+#++#+#+@++++++.+.+ + + + X ",
"                           X  X  .X  XO OO XOX+.+.+.++++  O++++%#$$%%**&*=*=*%%$$%    XXO++O++O+X++X@X@++++++@++O+.+ + + X X O O",
"                          X  O   . .XO OX OXOO.O...++.+  XO++###$$$*%$=*===%*$%%#    .XO+OX+.+++++++X#+@+++++++X+.+ +.O.O.O O.. ",
"                               X  X .  XXOXXO O.X.+.O+  XO++++$$$$&$%******==&=+     .XOXOX++X+OX++X@X++#X++++X+X+.+ O O O O O .",
"                                O  X .X O  O O ..Oo+.   +O++###$$$$%$*%=&*&=%%O      .XXXXOXX+OOXX++X+++X++++ + + + + O O O   . ",
"                             X X X  . .O XO O...+O.+  .+O++###$#$#&#*$=&=*=$%        . ..XXOXX+OX+XX+X+X+X++X+X+ + + O.+ O X X ."
};
