/* XPM */
static char *result[] = {
/* columns rows colors chars-per-pixel */
"128 80 75 1 ",
"  c #030303",
". c #080707",
"X c #070807",
"o c #080807",
"O c #070708",
"+ c #090708",
"@ c #070808",
"# c #0B0B0B",
"$ c #100F0E",
"% c #0F100F",
"& c #11100F",
"* c #0F0F10",
"= c #110F10",
"- c #0F1010",
"; c #141313",
": c #181716",
"> c #171816",
", c #191916",
"< c #171718",
"1 c #181719",
"2 c #171818",
"3 c #1C1C1A",
"4 c #211F1D",
"5 c #1F201F",
"6 c #22211E",
"7 c #1F1F20",
"8 c #201F21",
"9 c #1F2020",
"0 c #252422",
"q c #292624",
"w c #272826",
"e c #2B2926",
"r c #282728",
"t c #272828",
"y c #2D2C2A",
"u c #302B27",
"i c #312E2B",
"p c #2F302E",
"a c #34312E",
"s c #38342F",
"d c #2F2F31",
"f c #322F30",
"g c #2F3030",
"h c #353332",
"j c #393632",
"k c #373835",
"l c #3C3935",
"z c #373738",
"x c #393738",
"c c #3D3C3A",
"v c #403736",
"b c #413B37",
"n c #423E3A",
"m c #483F3D",
"M c #3F403E",
"N c #44413D",
"B c #49443F",
"V c #444442",
"C c #4A4642",
"Z c #474847",
"A c #4C4945",
"S c #474748",
"D c #4C4B4A",
"F c #514C46",
"G c #524E49",
"H c #4F504E",
"J c #52504C",
"K c #58544E",
"L c #545453",
"P c #5C5C5C",
"I c #636363",
"U c #6B6B6B",
"Y c #747474",
"T c #7B7B7B",
"R c #828282",
/* pixels */
"                              OOO OXO @o@##@##@@@#@@@#$#####$#o##&o##@##@@o##.o#####@#oooo#+++++O                               ",
"                      #;377<#O    +@@##@@@## o@o+. .+$;@###$$#$##&oo@##@##.##.o############.++ O@;3077*O  O                     ",
"                    *7zDPPPDct1#O++O#*#@##$###@+$#$=$;;$$o&&:&$#&;&&&&&:;&&$&&$$####$##o##+#O#;7hVLPPPSd1@                      ",
"                   #tSPUYTYUPSz0;#+##;@.oo   .@.;###$##$$$##;#$$###%##&;&;&&##&#$$;@ o      @3dMLIUTTYILx9O                     ",
"             @ @  ;tMLUTRRRYUPDct3;#%;#%##$#&&=$;&$:;,;:>::;,,;:,,:;;&,4,;;;;$&$;&:&#@#@#o#;0hVLIYRRRRYIDz7*   O                ",
"                 ;0zDPUTRRRTUIPSzw7;#####&&##;$$$#$&;4;;&:;;&&:;6,;:,,>;::&:>&$&;;%%%@#%#$3rfVLPUYRRRRYILMt1@@                  ",
"          o .  .#3tcDPUYTTTYUIPDMzt3;%###&:&;&&&$;;,,6,4,,::::,:63::>33,,,:53&&&%&%&&&%%&3efxSLPUYTTTYUILVh9;@                  ",
"             @@@;0dcDPIUYYYYUPPHSchye3%%#&;;;=;:6:3,,,,,,,:66,,433333,w4,,,,::;&;:>>,;:,0yhcVLLIUUYYYYUPLVzy2#                  ",
"              @#10gcSLPIIUUIIPLDSczyy9--o$&#$$&&6:&&&&&::&&y6,,,,,,,4,6,;:&&&&#&%;,;,>>5tdzMSHLPIIUUUIILHVht3*                  ",
"         @.@O.#;1tgcSDLPIIIIPPLLSczhpt92>&5633566666,4u6666u6664,qq46u6665436633,56:;35whfxMVLLLPIIIIPPHDMzd0<*@.@@@            ",
"         . @@+#;3tgzSSDHLLPLLLDHVzhyt03;&#&6#$&&;;&:4:a,,4:;,:&&&6,,4,:&%;>&56,333321,0yzdzcMMDHLLPPLLHSVzdt9;;@                ",
"     @  .#@@@##29tyzMMSDHLLLLHHHSSxhyt006566,633446666s6666666q6qsu66,&:36666q6603,0ewphnkMMSSDLLLLPLLDZMzhy021#@@ +@ o         ",
"     @    @@..@;90tgzcSSSDDLLSSSMSckzhep666,qe636,ue6wqyjuaueaj6664u666,6u666>u65330keyhhcVcMVSLLDDDDLSSMcky07<*#@o. .  @       ",
"     @ .  @#.@&:00tyzzScVVSDSVSVMczkzhpp66656y666,ae6666l6qaee6464,66u636u6665su3560cyahxVCcMVMHDVZVSZVcMzfd03;*##...+@         ",
"    @.  o  @@#;27tygccMMSSSSSSSDCMczappe66666epeu6uusyjsssusyyuaus6#663,us66uMasggazclcVCVVVSDDDDDDDVMczzkdt73<;&#@##@@@. @     ",
"            #;;230tgxzcMVVVMVVVVMzzgyyww656u0wea666aueMuq6u6euquus6:,6,&&555uswyyyygyhzxVxMVSVVSDSVDcczzhtt07<<<%##@@#@ X.      ",
" @ .      O @;2330yyzkkccMVnMxVSDVcccclfaahke0qeusuyaubauuqraueauNaeuu66aasalNsshaikillnDVVVVVDDVSMVMMckzkpw6531&######@. @     ",
"            @;;339tttygcMxVcxMxzxxzkhxcrt0095,3,3y,40066q064i033633666,alajjaajaahjlikkxlMMNMNAccczzzzggygy952;-#@@@@#.X@   .   ",
"  .      O  #;;330tyahhzxcVVcVVVVccnkcVigy0y05636q66eeauqqeqlu0066suuuwNnajjsvssllabacNnNNMNNVDVMMzckzhhtgy0531>&##@#&#@#@@.o   ",
"o@       @O #;;390tyhhgphzkccMMVGcVccMckhy3lewye0w0ryabaruiiaauaaNBsljsjjhjhlBahkkifkcccAMcccMMMcckcMhkppyew6513;;#$####@@#. @  ",
" . @o @@ @+#$;;2390tgzyzkhhkxxcVGxccMccctt0lappye60040ii0y000yayyNNyjsaaaauyaNyhkhphhkhxZMkcccccczkNNhhgyyw09933;&%#;###@.@.@ . ",
"@@@.@@#####;$;;379ttyphkkhcNcccVCnVVnnKcpyychaay6ew544uq64;30uyyyalaahajAajsjncnNccAlcccCNNVVNDCcccclhhgywy00333;&&##-#####@@.@ ",
"    #@###%#*;;=33300tygydhcVahhhjjjhfhGy0050w5,,&66344466;:346,3,,35565eBaaayhhklchChhhhzhzzkhCNhhppppye00y33>;;&#X@@&@##@@o.@ +",
"@@##%##-;#;;;:3809thhhllcnAGNBCAmVBVNmGkpehclpyyqsa66u6qq44,44eyslpsshalAllnClbbchkCmCCACNNCCCGAnnNcklhappg06653,;&#$;;##$#@@@@ ",
"@#@@####=$;;;;13438iiihjklbcbbCCfhzhggtyy0cai66qqq66,u66u4$,:$qilluayyyyyyycFvmmbhlnmCCAvcnmnnncnlCkyytt9953>30;==$#$##@#$o@#@..",
"#@#@##$=:;;;;,1,400yyujhlbccncAGkcclzlklhaljuqeyuauw4u664q44;4jjbNajsaayhhhnAjbbiiimCCmGmmnnNNNnNlNcyhyt0005336;:;=##$###$##@@..",
"###$#;;$;=;,;:,10y3000spiffhDNVAVGGllkaANa0yywwhahhh666488u044mlMMlANaasjFlljiileyujGCjblcAczchMAlllklh0006y633,13$;$$;##$##$@ .",
"#####;$$$==,;:,40r3336pyttyyClVVVAAuhayNlyq66jphayhjqq64q4qe8ubahllAleayyCiuiuulerryAniiihChyaphCjlhhly9666p53,;;3;;&$;;###o@@  ",
"#####;&;,:;::3300q0epyshhkhpccZJNCNNANccnjnjlBljcjjsissuiisiisbajBsNjysaqaaaBleliejbCCxAGCSckcccCcNNaljaayee66e644;:;&;&$#$#@.  ",
"@###$###:;$$;:12,340ewyyygghlcNAaeyjjaueueNlyppyyeyr6uuqeueeuuuuaNeaqww0q009leryiuhiifimVcfdffzckccn0rt063635,w3,;;;%%##@##@@. @",
"###;;;;;33;;;:343666wwypphllcNCKmyjVCNslcjBNjcjalssaqyi6euualssaaBbbjssbauuyNaajkjljlxvCCheiknnckkVAjhhaaaeq66e333;;,;&;#;$@@@@@",
"###;#;;:;2;;1263363360eeehcyahckkhkccn0haapyaypqNa0e6644400ij8q666ueuyabyyyypaakxkbuisjjjjiihmcyyphiafyypaw06621;;;;3&####@@+ .o",
"###=&&&&,,,:,:04;3340yyyekcyhhklcjihbGnkjkxljyuiNare0qq6q66ubqe66qqqueabeiuiyyiihanyiiifhhihjCmhhkjshhiialqe066,,:;;3;#%###o. oo",
"#$==&::&4;;;,,34300y00yyeyayyijcjilbnNClvnKbcjhhkaiaejiuiuusbaiquvquuialiaaalyeuhpphhhycapahfkkhhhNnlblkjjaurey3333:;;;&&;$####o",
"+$$$&&&&:&&&;;23333y6399003000yirjbmvjjjsxGjkhhiyyhhyaqeuuquiueyuuqqeuuusiiajre0eyyidyybeyyyyyyrrrnnjjsiuuuyqqe,322;;;-&&;#$#+# ",
"#$$;:;,;;::&::00300ieeeyyyhhhhcnxnnCNBjijvmkjhjisnhaeaueuqquNueq6u0660elsiilblllllANcclBnnnmVCKNnbNBxvllsNayqqq4432:,;;;&;&####+",
".+o&&&;::;,33,302460q0rry0hyiijjllmnxVj4r0004004yn60,,333633N633,,,:;23sueuuiijvlbCNfufxcknncnGxblhjjjjiyj053&;&;;&#;;@##@oo   .",
"###&;&;:&:,,336y600euiuueejihjvjnmCmnGChuhhjaajilCaieeeuyuaaBlueqeu6000auuueelllllAFjjbmnNmmnCKmmbllmjjfajy666463;,;,3;#&$#### .",
"+###$###&;3;:3,48080rhu0yeeuajljCckklxjfeyickyiihhiyywuNeew0yyw006s3703300003chyhfkhhhhkbCcmCmmnnkjjmyyieeye063q3;;;;&%;##$# ## ",
".#o##$&&&,,;232330000j00rqueuijlAljkhiye0yillyyfyyhhe0aNeyeeeyy0ewj690000rr04lhihfjckkhhcNlxbvblblaaNeyywewq663q4&#&&;;#;#$$# # ",
"o####%&:&:,,35560eluuaieuqfiejlknnnNcjjljluayeyueeiabujnllllkcjNaqy6q6queulhyhkckjbNnNJnmBmnmmBmmGljbjisuii0uu363;##;$==;%$##@@@",
" oooo#%:%;;;,33360aqeeiuuufiqjiahaljljljji4560034460Nahazhhiikenu55,636644iy0yffhkkkxcGbmlbmxmnvjmliiiiiieu8y6;;&@o. .##;####+..",
"##$$&&:,;;::30,36qaqquuuffiuisausjsNNsjjjluiyyacsassNllvhnCckbhnlasaqsaassblialjVAlNNNFbnbbnCnBcnmljsliliye0uy44,;&&#.$$;$#####.",
"o#&#&&&&&&&;;6#;;;;,:131suquiqeyaaulj600000236qcqeq6666qqqmayuiypyyq6ja6isuijjlsmn360q8rr04rmknvcjsjlais033,;;;$;##$..+.##++@ # ",
"o#&#&&&&&%;;,6;,344440q0vsuiasasauaslyyakie0euaBaauaaquaaiBlijnmlaaasbsqajaqelnlCBe0uaiuiaaiBbcjllalaaalir00q6442$&;$##$$###@@#.",
" #####:&#%;;;,>330q6quuiiiiiaj6qq0q0qqqebuueeuauuyqlaepaiaiuifbFhhhsasyayaN690hhhhhaaNjlbllbssjajs6rq6q64040i44,:;$;;$$$$##@#@@ ",
"o ###o#&#&&;;;;33666qeuuiuiisj60w00q0q0rnueyeeeuquqjseyaayyuuivmiahaaap600y533yahhhuelaajaaassaulu34q6,;::44i4,:;;&$$$#&#o@#@.. ",
" ##o##%%%&;;53,566qreuyjvuifhhsaseulyueahaaaauBbpaapayaaanCijlbmljljbBaawqw000haBNclashaslanlayyiu0ryq36:,40644;,;6;&&$#$#o#@##@",
"o#X @@@@@@##>;;333560wtys0yeywepw06y3390666w66Me563336304iNeiiiuuuiijn4804433843jhlhpyeeppeca00w040332,3#;;;;;;&$$,$@#@@@@.  #+ ",
" #@####;%;;;,,,356qq0eephyyypysaeeeseeyyuNjlhaNNaauaNlikjmBajjjvnjllnFjlaiabiuyiNcljsplaaapjheww0qr6:;23;5;366,4,;3&&;$#$##@@#@ ",
"  X o@@;#;;;;-;;3103;123233236p:332233566Ny666q66q66ba40q044444uj40qe8qee8ebypyyyhhapwcw566333132q0&###-#;;#;6&&$$###@@@#@ .    ",
"XXXo@@o##;%;;;;;3306306660000ea6000w6eu06NueyyyyuuaynBiaiiiusiqsvussaiujsuunjhyahkljaqjaaew600006ue3;%;##&,,,6&&&&&&####;@@@@@+@",
".@+#@.+@#;&&&&;3;3,3e63330s0003ejyhhpMseuyyNyauwaluhljCNcnckGayuebBvbblCauqeaceyhpAbuiqeb03030s5003e6:;&o&,3,,,5;;;%;####@#@@@@@",
"  .@..oo@;#%#&;2&;::w5;333p3122qjeauehuqueqh6ee6ejryiynnjjkhB0004lmallusq666ul00yeBlru46j63326s332;wy023;643,&;3$;##;#@@@o#... .",
"  o@@@@#&;;&;;:,3,666w6eewy000uqe0006ayq6jepasayhcjjnnnBvjlvNsasnlbliieq6saBcMhlcMBNlajacjaayyaeyyae0643303,,633;,;%&%#@=##@@ ..",
"     o ####%&&=;::362556935000y22>;>332>:apyahyyaahavbivvssssiiul4rrr0433q5ayhyhzzy0hinayppye65wwey;<;;;&#&$%3;;;;;;###@#@@+.o  ",
"  @o@@@$###=#;;&&:3634640e00r6uer0eelu6weljshaakhaaabNusjaulasshcjjsljNjasujiiihaMsuajNjyaueeer00ey666333>>;;3:;;;;&###@@@@@. @.",
"  .  @@@####$&$$&;:::3334r,333233630c6656506665ay6eqq6qeyqyj300060ewqqNajjhihiiiyNyeiheryur0ur3331>32;%>6#&-%%###@@&#..  . +    ",
"    o  oo####&&#&&;,,33340,333343000jq0000w6qw6aieeq6uu6u6ul0e0eyyuayabaihuhhiijuNsyaaeeeqery634335,;;%,6%&##&&####&#o@..       ",
"      o@oo@#@#$;&&;3:22;,33343e600w0eyypphlyppaaahaiulaquyqaaaasBsljjaaaijiClyyaypayhiuj06606533536,,;;>;;;;&;;%%###@@@@.  X o  ",
"        o @#@#@##$%,#;;;;;;2;:04373000eywaswyyppyiuyacqyyyyypayyluauywry0yely0rrwyyyywyy24233:13::4=;#;;&&$&#;;###@@@+          ",
"        oo@@@#$#%#&,;;>;>,,;23432366uywewyaeyyyuhaaaalaaauujuyayaeeue0y6eyujayeeesaepyyuq060qe3,,,4:;%;;;&##@###@@@@@  @@       ",
"           @..@o@oo####%#:%#$=$#;&;;06;1,,>3>,25hquuqequqqqs,;>;>,>2,>e6300000006eq4664,;,,244$==#$$$#@#;#@@        X  .        ",
"          @ ..#o####&&&;&,;;;;::,333w6666qw660wpcuasjuq6yqqleqqeq60066y630q0eqrewyu6qq6q663446;;:1;;$$$#;$#@@@o .  .            ",
"            @@..@##@#$$$&$&;;,#%*;;;;;1:q6344440660usqq0qrryyyea6qw606333,4:60qeuqqqqq4444;43;;&;,#$#####@# #.o                 ",
"               ..@+++###$$$#&;&##;;;::1;66,,,,344446y34666460e0s6ww66332;;:;,464848q4q4;4;;$;&$$&&####@@@@o.@                   ",
"             . @    +###+@;;&;;;2;;;;24:4,3r04400u66646y3334q00eewa6q6631;,::,44444r4::;:;$$&#;;&&$&;##@@## o                   ",
"                     .@  .#;####;####;:$&&$34,322r,3334q;,::333466q533,3,;;;=:::1:,4###+$$.$@@&##$### .   @                     ",
"                 .  .+X###;=;;#&;;;;;;;;;,;42,32363,43:3,:,,46,656q34:,644,,$:4,3,:4;;,;:;$&$#&##;###@@@ @.                     ",
"                       @@@@##-#@########&:$#*-;;;=;;1;==$$;:,;;4:&;;;&;;==,,$;;=;;==;&;&$$$$####@#@    .                        ",
"                     @.@@##@@$$#$##=-#-#;;$&**;;;;=;;;=$$=;&&&&,&&:;&>;;;;,,;;;;;=$;=&;$$$$#%###@#@o.@ .                        ",
"                        # .@.+@#@#@$##########;;-####$#@##;#$$$#$$&$&;&;$;;=$=$$=$##$###$+#+#@@o..@                             ",
"                           @. @@@#@##@####@@###;######@@@##@@#@#.####=###$$##$#######@###@@@#@                                  ",
"                           @.@@@#@#@#@@@#######$###$$@###@##+##$#####$$@@####@#@@#@@@##@@@@@@    @.                             ",
"                             @.  @@.@ ..@@@#@@@@@@@@#+..@+@....@ .@#++#+.+@@@@+ @@@@.@@ .  .                                    ",
"                               X.  @@.. .o@@ +.@@@@#o . . @  . + .@@ +@  o@@@@ @ +.  @...   .                                   ",
"                                      .   + .  .                       +o   @.    .X                                            ",
"                                                                          .  .@     .                                           ",
"                                                                                                                                ",
"                                                                                                                                "
};
